<svg width="24" height="24" viewBox="0 0 24 24" fill="none" xmlns="http://www.w3.org/2000/svg">
<path d="M8.5002 8.3C8.1002 7.9 7.5002 7.9 7.1002 8.3C6.7002 8.7 6.7002 9.3 7.1002 9.7L9.3002 12L7.0002 14.3C6.8002 14.5 6.7002 14.7 6.7002 15C6.7002 15.6 7.1002 16 7.7002 16C8.0002 16 8.2002 15.9 8.4002 15.7L11.4002 12.7C11.8002 12.3 11.8002 11.7 11.4002 11.3L8.5002 8.3ZM17.0002 11.3L14.0002 8.3C13.6002 7.9 13.0002 7.9 12.6002 8.3C12.2002 8.7 12.2002 9.3 12.6002 9.7L14.9002 12L12.6002 14.3C12.4002 14.5 12.3002 14.7 12.3002 15C12.3002 15.6 12.7002 16 13.3002 16C13.6002 16 13.8002 15.9 14.0002 15.7L17.0002 12.7C17.3002 12.3 17.3002 11.7 17.0002 11.3Z" fill="black"/>
</svg>
