<svg width="24" height="24" viewBox="0 0 24 24" fill="none" xmlns="http://www.w3.org/2000/svg">
<path d="M12 22C17.5228 22 22 17.5228 22 12C22 6.47715 17.5228 2 12 2C6.47715 2 2 6.47715 2 12C2 17.5228 6.47715 22 12 22Z" fill="#010101"/>
<path d="M16.8998 13.3999L12.6998 9.1999C12.2998 8.7999 11.6998 8.7999 11.2998 9.1999L7.0998 13.3999C6.6998 13.7999 6.6998 14.3999 7.0998 14.7999C7.4998 15.1999 8.0998 15.1999 8.4998 14.7999L11.9998 11.2999L15.4998 14.7999C15.6998 14.9999 15.8998 15.0999 16.1998 15.0999C16.4998 15.0999 16.6998 14.9999 16.8998 14.7999C17.2998 14.3999 17.2998 13.7999 16.8998 13.3999Z" fill="white"/>
</svg>
