<svg width="24" height="24" viewBox="0 0 24 24" fill="none" xmlns="http://www.w3.org/2000/svg">
<path d="M16.9998 14.3L14.6998 12L16.9998 9.7C17.3998 9.3 17.3998 8.7 16.9998 8.3C16.5998 7.9 15.9998 7.9 15.5998 8.3L12.5998 11.3C12.1998 11.7 12.1998 12.3 12.5998 12.7L15.5998 15.7C15.7998 15.9 15.9998 16 16.2998 16C16.5998 16 16.7998 15.9 16.9998 15.7C17.2998 15.3 17.2998 14.7 16.9998 14.3ZM9.1998 12L11.4998 9.7C11.8998 9.3 11.8998 8.7 11.4998 8.3C11.0998 7.9 10.4998 7.9 10.0998 8.3L7.0998 11.3C6.6998 11.7 6.6998 12.3 7.0998 12.7L10.0998 15.7C10.2998 15.9 10.4998 16 10.7998 16C11.0998 16 11.2998 15.9 11.4998 15.7C11.8998 15.3 11.8998 14.7 11.4998 14.3L9.1998 12Z" fill="black"/>
</svg>
