<svg width="20" height="20" viewBox="0 0 20 20" fill="none" xmlns="http://www.w3.org/2000/svg">
<path d="M8.50817 12.2917C8.58564 12.3699 8.67781 12.4319 8.77936 12.4742C8.88091 12.5165 8.98983 12.5382 9.09984 12.5382C9.20985 12.5382 9.31877 12.5165 9.42032 12.4742C9.52187 12.4319 9.61404 12.3699 9.6915 12.2917L13.0915 8.89175C13.2484 8.73483 13.3366 8.522 13.3366 8.30008C13.3366 8.07816 13.2484 7.86533 13.0915 7.70842C12.9346 7.5515 12.7218 7.46334 12.4998 7.46334C12.2779 7.46334 12.0651 7.5515 11.9082 7.70842L9.09984 10.5251L8.0915 9.50841C7.93458 9.3515 7.72176 9.26334 7.49984 9.26334C7.27792 9.26334 7.06509 9.3515 6.90817 9.50841C6.75125 9.66533 6.66309 9.87816 6.66309 10.1001C6.66309 10.322 6.75125 10.5348 6.90817 10.6917L8.50817 12.2917ZM17.4998 1.66675H2.49984C2.27882 1.66675 2.06686 1.75455 1.91058 1.91083C1.7543 2.06711 1.6665 2.27907 1.6665 2.50008V17.5001C1.6665 17.7211 1.7543 17.9331 1.91058 18.0893C2.06686 18.2456 2.27882 18.3334 2.49984 18.3334H17.4998C17.7209 18.3334 17.9328 18.2456 18.0891 18.0893C18.2454 17.9331 18.3332 17.7211 18.3332 17.5001V2.50008C18.3332 2.27907 18.2454 2.06711 18.0891 1.91083C17.9328 1.75455 17.7209 1.66675 17.4998 1.66675V1.66675ZM16.6665 16.6667H3.33317V3.33341H16.6665V16.6667Z" fill="#00943F"/>
</svg>
