<svg width="24" height="24" viewBox="0 0 24 24" fill="none" xmlns="http://www.w3.org/2000/svg">
<path d="M15.7098 8.29008C15.6169 8.19635 15.5063 8.12196 15.3844 8.07119C15.2626 8.02042 15.1318 7.99428 14.9998 7.99428C14.8678 7.99428 14.7371 8.02042 14.6153 8.07119C14.4934 8.12196 14.3828 8.19635 14.2898 8.29008L11.9998 10.5901L9.70984 8.29008C9.52153 8.10178 9.26614 7.99599 8.99984 7.99599C8.73353 7.99599 8.47814 8.10178 8.28983 8.29008C8.10153 8.47838 7.99574 8.73378 7.99574 9.00008C7.99574 9.26638 8.10153 9.52178 8.28983 9.71008L10.5898 12.0001L8.28983 14.2901C8.19611 14.383 8.12171 14.4936 8.07094 14.6155C8.02017 14.7374 7.99404 14.8681 7.99404 15.0001C7.99404 15.1321 8.02017 15.2628 8.07094 15.3847C8.12171 15.5065 8.19611 15.6171 8.28983 15.7101C8.3828 15.8038 8.4934 15.8782 8.61526 15.929C8.73712 15.9797 8.86782 16.0059 8.99984 16.0059C9.13185 16.0059 9.26255 15.9797 9.38441 15.929C9.50627 15.8782 9.61687 15.8038 9.70984 15.7101L11.9998 13.4101L14.2898 15.7101C14.3828 15.8038 14.4934 15.8782 14.6153 15.929C14.7371 15.9797 14.8678 16.0059 14.9998 16.0059C15.1318 16.0059 15.2626 15.9797 15.3844 15.929C15.5063 15.8782 15.6169 15.8038 15.7098 15.7101C15.8036 15.6171 15.878 15.5065 15.9287 15.3847C15.9795 15.2628 16.0056 15.1321 16.0056 15.0001C16.0056 14.8681 15.9795 14.7374 15.9287 14.6155C15.878 14.4936 15.8036 14.383 15.7098 14.2901L13.4098 12.0001L15.7098 9.71008C15.8036 9.61712 15.878 9.50652 15.9287 9.38466C15.9795 9.2628 16.0056 9.13209 16.0056 9.00008C16.0056 8.86807 15.9795 8.73736 15.9287 8.6155C15.878 8.49364 15.8036 8.38304 15.7098 8.29008ZM19.0698 4.93008C18.1474 3.97498 17.0439 3.21316 15.8239 2.68907C14.6038 2.16498 13.2916 1.88911 11.9638 1.87757C10.6361 1.86604 9.31926 2.11905 8.09029 2.62186C6.86133 3.12467 5.74481 3.8672 4.80589 4.80613C3.86696 5.74506 3.12443 6.86158 2.62162 8.09054C2.11881 9.3195 1.86579 10.6363 1.87733 11.9641C1.88887 13.2919 2.16473 14.6041 2.68882 15.8241C3.21291 17.0442 3.97473 18.1476 4.92984 19.0701C5.8523 20.0252 6.95575 20.787 8.17579 21.3111C9.39583 21.8352 10.708 22.111 12.0358 22.1226C13.3636 22.1341 14.6804 21.8811 15.9094 21.3783C17.1383 20.8755 18.2549 20.133 19.1938 19.194C20.1327 18.2551 20.8752 17.1386 21.3781 15.9096C21.8809 14.6807 22.1339 13.3639 22.1223 12.0361C22.1108 10.7083 21.8349 9.39607 21.3109 8.17603C20.7868 6.95599 20.0249 5.85255 19.0698 4.93008ZM17.6598 17.6601C16.3519 18.9695 14.6304 19.7849 12.7886 19.9674C10.9469 20.1499 9.09884 19.6881 7.55936 18.6609C6.01987 17.6336 4.88419 16.1043 4.34581 14.3336C3.80742 12.5628 3.89964 10.6602 4.60675 8.94986C5.31386 7.23951 6.59211 5.82723 8.22373 4.95364C9.85534 4.08006 11.7394 3.79921 13.5548 4.15895C15.3703 4.5187 17.0049 5.49677 18.1801 6.92654C19.3553 8.35631 19.9984 10.1493 19.9998 12.0001C20.0034 13.0514 19.7984 14.0929 19.3968 15.0645C18.9951 16.036 18.4047 16.9182 17.6598 17.6601Z" fill="white"/>
</svg>
