<svg width="94" height="94" viewBox="0 0 94 94" fill="none" xmlns="http://www.w3.org/2000/svg">
<path d="M44.2188 61.5308C44.7667 62.0832 45.4666 62.4599 46.2293 62.6129C46.9921 62.7659 47.7832 62.6883 48.5016 62.39C49.2201 62.0917 49.8335 61.5862 50.2636 60.9379C50.6936 60.2896 50.9209 59.5279 50.9163 58.75C50.9019 57.713 50.4962 56.7197 49.7805 55.9691C49.2297 55.4257 48.5303 55.0575 47.7705 54.9111C47.0107 54.7648 46.2246 54.8467 45.5113 55.1466C45.0306 55.3331 44.5913 55.6126 44.2188 55.9691C43.5031 56.7197 43.0974 57.713 43.083 58.75C43.08 59.2654 43.1788 59.7764 43.3737 60.2536C43.5686 60.7308 43.8558 61.1648 44.2188 61.5308ZM77.9805 60.7475H60.238C59.1992 60.7475 58.203 61.1601 57.4685 61.8946C56.734 62.6292 56.3213 63.6254 56.3213 64.6641C56.3213 65.7029 56.734 66.6991 57.4685 67.4336C58.203 68.1682 59.1992 68.5808 60.238 68.5808H69.638C65.3177 73.0957 59.7461 76.2156 53.6391 77.5398C47.532 78.8639 41.1686 78.3318 35.3663 76.0117C29.564 73.6916 24.588 69.6896 21.0776 64.5199C17.5671 59.3502 15.6827 53.2489 15.6663 47C15.6663 45.9612 15.2537 44.965 14.5192 44.2305C13.7847 43.496 12.7884 43.0833 11.7497 43.0833C10.7109 43.0833 9.71469 43.496 8.98017 44.2305C8.24566 44.965 7.83301 45.9612 7.83301 47C7.85371 54.6484 10.1134 62.1235 14.3331 68.5026C18.5529 74.8817 24.548 79.8857 31.5787 82.8971C38.6095 85.9085 46.368 86.7954 53.897 85.4485C61.4259 84.1015 68.3958 80.5797 73.9463 75.3175V82.25C73.9463 83.2887 74.359 84.285 75.0935 85.0195C75.828 85.754 76.8242 86.1666 77.863 86.1666C78.9018 86.1666 79.898 85.754 80.6325 85.0195C81.367 84.285 81.7797 83.2887 81.7797 82.25V64.625C81.77 63.613 81.369 62.6441 80.6608 61.9213C79.9526 61.1984 78.992 60.7778 77.9805 60.7475V60.7475ZM46.9997 7.83331C36.9589 7.86195 27.3125 11.7457 20.053 18.6825V11.75C20.053 10.7112 19.6404 9.715 18.9058 8.98048C18.1713 8.24596 17.1751 7.83331 16.1363 7.83331C15.0976 7.83331 14.1014 8.24596 13.3668 8.98048C12.6323 9.715 12.2197 10.7112 12.2197 11.75V29.375C12.2197 30.4137 12.6323 31.41 13.3668 32.1445C14.1014 32.879 15.0976 33.2916 16.1363 33.2916H33.7613C34.8001 33.2916 35.7963 32.879 36.5308 32.1445C37.2654 31.41 37.678 30.4137 37.678 29.375C37.678 28.3362 37.2654 27.34 36.5308 26.6055C35.7963 25.871 34.8001 25.4583 33.7613 25.4583H24.3613C28.6793 20.9458 34.2474 17.8267 40.3507 16.5013C46.4541 15.176 52.8143 15.7048 58.615 18.02C64.4156 20.3352 69.392 24.3311 72.9054 29.4948C76.4188 34.6585 78.3089 40.7544 78.333 47C78.333 48.0387 78.7456 49.035 79.4802 49.7695C80.2147 50.504 81.2109 50.9166 82.2497 50.9166C83.2884 50.9166 84.2847 50.504 85.0192 49.7695C85.7537 49.035 86.1663 48.0387 86.1663 47C86.1663 41.8565 85.1533 36.7635 83.185 32.0115C81.2166 27.2596 78.3316 22.9419 74.6947 19.305C71.0577 15.668 66.74 12.783 61.9881 10.8147C57.2362 8.84639 52.1431 7.83331 46.9997 7.83331V7.83331ZM46.9997 50.9166C48.0384 50.9166 49.0347 50.504 49.7692 49.7695C50.5037 49.035 50.9163 48.0387 50.9163 47V35.25C50.9163 34.2112 50.5037 33.215 49.7692 32.4805C49.0347 31.746 48.0384 31.3333 46.9997 31.3333C45.9609 31.3333 44.9647 31.746 44.2302 32.4805C43.4957 33.215 43.083 34.2112 43.083 35.25V47C43.083 48.0387 43.4957 49.035 44.2302 49.7695C44.9647 50.504 45.9609 50.9166 46.9997 50.9166Z" fill="white"/>
</svg>
