<svg width="54" height="54" viewBox="0 0 54 54" fill="none" xmlns="http://www.w3.org/2000/svg">
<path d="M27 35.9999C26.555 35.9999 26.12 36.1318 25.75 36.3791C25.38 36.6263 25.0916 36.9777 24.9213 37.3888C24.751 37.8 24.7065 38.2524 24.7933 38.6888C24.8801 39.1253 25.0944 39.5262 25.4091 39.8409C25.7237 40.1555 26.1246 40.3698 26.5611 40.4566C26.9976 40.5435 27.45 40.4989 27.8611 40.3286C28.2722 40.1583 28.6236 39.8699 28.8709 39.4999C29.1181 39.1299 29.25 38.6949 29.25 38.2499C29.25 37.6531 29.013 37.0808 28.591 36.6589C28.1691 36.2369 27.5968 35.9999 27 35.9999ZM51.0075 39.3074L32.895 7.80738C32.3096 6.75779 31.4546 5.88353 30.4182 5.27493C29.3819 4.66633 28.2019 4.34546 27 4.34546C25.7982 4.34546 24.6182 4.66633 23.5819 5.27493C22.5455 5.88353 21.6905 6.75779 21.105 7.80738L3.10505 39.3074C2.49934 40.3289 2.17387 41.4922 2.1615 42.6797C2.14913 43.8673 2.45029 45.0371 3.03459 46.071C3.61889 47.1049 4.46563 47.9664 5.48934 48.5684C6.51304 49.1705 7.67747 49.4918 8.86505 49.4999H45.135C46.3322 49.5117 47.5109 49.2049 48.5503 48.6109C49.5898 48.017 50.4526 47.1573 51.0503 46.12C51.6479 45.0827 51.9589 43.905 51.9514 42.7079C51.9439 41.5107 51.6182 40.3371 51.0075 39.3074ZM47.1151 43.8074C46.9178 44.1583 46.6301 44.4498 46.2818 44.6517C45.9336 44.8535 45.5376 44.9582 45.135 44.9549H8.86505C8.46255 44.9582 8.06652 44.8535 7.71826 44.6517C7.37001 44.4498 7.08227 44.1583 6.88505 43.8074C6.68757 43.4653 6.58361 43.0773 6.58361 42.6824C6.58361 42.2874 6.68757 41.8994 6.88505 41.5574L24.885 10.0574C25.0739 9.68882 25.3607 9.37953 25.7141 9.16355C26.0674 8.94757 26.4734 8.83329 26.8875 8.83329C27.3017 8.83329 27.7077 8.94757 28.061 9.16355C28.4144 9.37953 28.7012 9.68882 28.89 10.0574L47.0025 41.5574C47.2258 41.8945 47.354 42.2856 47.3738 42.6894C47.3936 43.0933 47.3042 43.495 47.1151 43.8524V43.8074ZM27 17.9999C26.4033 17.9999 25.831 18.2369 25.4091 18.6589C24.9871 19.0808 24.75 19.6531 24.75 20.2499V29.2499C24.75 29.8466 24.9871 30.4189 25.4091 30.8409C25.831 31.2628 26.4033 31.4999 27 31.4999C27.5968 31.4999 28.1691 31.2628 28.591 30.8409C29.013 30.4189 29.25 29.8466 29.25 29.2499V20.2499C29.25 19.6531 29.013 19.0808 28.591 18.6589C28.1691 18.2369 27.5968 17.9999 27 17.9999Z" fill="#FFA41B"/>
</svg>
