<svg width="24" height="24" viewBox="0 0 24 24" fill="none" xmlns="http://www.w3.org/2000/svg">
<path d="M15.707 11.293L11.707 7.29296C11.5189 7.10825 11.2655 7.00529 11.0019 7.00648C10.7383 7.00767 10.4858 7.11292 10.2994 7.29933C10.113 7.48574 10.0077 7.73822 10.0065 8.00183C10.0053 8.26545 10.1083 8.51887 10.293 8.70696L12.5859 11H4V13H12.5859L10.2929 15.293C10.1991 15.3856 10.1246 15.4959 10.0736 15.6174C10.0225 15.739 9.99605 15.8694 9.99564 16.0013C9.99522 16.1331 10.0209 16.2637 10.0711 16.3856C10.1214 16.5075 10.1953 16.6182 10.2885 16.7114C10.3817 16.8047 10.4925 16.8785 10.6144 16.9288C10.7362 16.9791 10.8669 17.0047 10.9987 17.0043C11.1305 17.0039 11.261 16.9774 11.3825 16.9264C11.5041 16.8753 11.6144 16.8008 11.707 16.707L15.707 12.707C15.7999 12.6141 15.8735 12.5039 15.9238 12.3826C15.9741 12.2613 15.9999 12.1313 15.9999 12C15.9999 11.8686 15.9741 11.7386 15.9238 11.6173C15.8735 11.496 15.7999 11.3858 15.707 11.293Z" fill="#00943F"/>
<path d="M17 2H7C6.20462 2.00087 5.44206 2.31722 4.87964 2.87964C4.31722 3.44206 4.00087 4.20462 4 5V11H12.5859L10.293 8.707C10.1083 8.51891 10.0053 8.26549 10.0065 8.00188C10.0077 7.73826 10.113 7.48578 10.2994 7.29937C10.4858 7.11297 10.7383 7.00772 11.0019 7.00652C11.2655 7.00533 11.5189 7.10829 11.707 7.293L15.707 11.293C15.7999 11.3858 15.8736 11.4961 15.9238 11.6174C15.9741 11.7387 16 11.8687 16 12C16 12.1313 15.9741 12.2614 15.9238 12.3827C15.8736 12.504 15.7999 12.6142 15.707 12.7071L11.707 16.7071C11.5191 16.8926 11.2654 16.9963 11.0013 16.9955C10.7372 16.9946 10.4841 16.8893 10.2974 16.7026C10.1107 16.5158 10.0054 16.2628 10.0046 15.9987C10.0037 15.7346 10.1074 15.4809 10.293 15.293L12.5859 13H4V19C4.00087 19.7954 4.31722 20.5579 4.87964 21.1204C5.44206 21.6828 6.20462 21.9991 7 22H17C17.7954 21.9991 18.5579 21.6828 19.1204 21.1204C19.6828 20.5579 19.9991 19.7954 20 19V5C19.9991 4.20462 19.6828 3.44206 19.1204 2.87964C18.5579 2.31722 17.7954 2.00087 17 2V2Z" fill="white"/>
</svg>
