<svg width="37" height="37" viewBox="0 0 37 37" fill="none" xmlns="http://www.w3.org/2000/svg">
<path d="M4.62467 10.7917H32.3747C33.2997 10.7917 33.9163 10.175 33.9163 9.25004C33.9163 8.32504 33.2997 7.70837 32.3747 7.70837H4.62467C3.69967 7.70837 3.08301 8.32504 3.08301 9.25004C3.08301 10.175 3.69967 10.7917 4.62467 10.7917ZM32.3747 13.875H4.62467C3.69967 13.875 3.08301 14.4917 3.08301 15.4167C3.08301 16.3417 3.69967 16.9584 4.62467 16.9584H32.3747C33.2997 16.9584 33.9163 16.3417 33.9163 15.4167C33.9163 14.4917 33.2997 13.875 32.3747 13.875ZM32.3747 20.0417H4.62467C3.69967 20.0417 3.08301 20.6584 3.08301 21.5834C3.08301 22.5084 3.69967 23.125 4.62467 23.125H32.3747C33.2997 23.125 33.9163 22.5084 33.9163 21.5834C33.9163 20.6584 33.2997 20.0417 32.3747 20.0417ZM32.3747 26.2084H4.62467C3.69967 26.2084 3.08301 26.825 3.08301 27.75C3.08301 28.675 3.69967 29.2917 4.62467 29.2917H32.3747C33.2997 29.2917 33.9163 28.675 33.9163 27.75C33.9163 26.825 33.2997 26.2084 32.3747 26.2084Z" fill="white"/>
</svg>
