<svg width="30" height="30" viewBox="0 0 30 30" fill="none" xmlns="http://www.w3.org/2000/svg">
<path d="M27.4004 14.5C24.8754 8.6375 20.1254 5 15.0004 5C9.87545 5 5.12545 8.6375 2.60045 14.5C2.53162 14.6577 2.49609 14.8279 2.49609 15C2.49609 15.1721 2.53162 15.3423 2.60045 15.5C5.12545 21.3625 9.87545 25 15.0004 25C20.1254 25 24.8754 21.3625 27.4004 15.5C27.4693 15.3423 27.5048 15.1721 27.5048 15C27.5048 14.8279 27.4693 14.6577 27.4004 14.5V14.5ZM15.0004 22.5C11.0379 22.5 7.28795 19.6375 5.12545 15C7.28795 10.3625 11.0379 7.5 15.0004 7.5C18.9629 7.5 22.7129 10.3625 24.8754 15C22.7129 19.6375 18.9629 22.5 15.0004 22.5ZM15.0004 10C14.0115 10 13.0448 10.2932 12.2226 10.8427C11.4004 11.3921 10.7595 12.173 10.3811 13.0866C10.0026 14.0002 9.9036 15.0055 10.0965 15.9755C10.2894 16.9454 10.7657 17.8363 11.4649 18.5355C12.1642 19.2348 13.0551 19.711 14.025 19.9039C14.9949 20.0969 16.0002 19.9978 16.9139 19.6194C17.8275 19.241 18.6084 18.6001 19.1578 17.7779C19.7072 16.9556 20.0004 15.9889 20.0004 15C20.0004 13.6739 19.4737 12.4021 18.536 11.4645C17.5983 10.5268 16.3265 10 15.0004 10V10ZM15.0004 17.5C14.506 17.5 14.0226 17.3534 13.6115 17.0787C13.2004 16.804 12.88 16.4135 12.6908 15.9567C12.5015 15.4999 12.452 14.9972 12.5485 14.5123C12.6449 14.0273 12.8831 13.5819 13.2327 13.2322C13.5823 12.8826 14.0278 12.6445 14.5127 12.548C14.9977 12.4516 15.5003 12.5011 15.9572 12.6903C16.414 12.8795 16.8044 13.2 17.0791 13.6111C17.3538 14.0222 17.5004 14.5055 17.5004 15C17.5004 15.663 17.2371 16.2989 16.7682 16.7678C16.2994 17.2366 15.6635 17.5 15.0004 17.5Z" fill="#555555"/>
</svg>
