<svg width="20" height="20" viewBox="0 0 20 20" fill="none" xmlns="http://www.w3.org/2000/svg">
<path d="M18.2659 9.66659C16.5826 5.75825 13.4159 3.33325 9.99926 3.33325C6.58265 3.33325 3.41599 5.75825 1.73265 9.66659C1.68677 9.77175 1.66309 9.88517 1.66309 9.99992C1.66309 10.1147 1.68677 10.2281 1.73265 10.3333C3.41599 14.2416 6.58265 16.6666 9.99926 16.6666C13.4159 16.6666 16.5826 14.2416 18.2659 10.3333C18.3118 10.2281 18.3355 10.1147 18.3355 9.99992C18.3355 9.88517 18.3118 9.77175 18.2659 9.66659ZM9.99926 14.9999C7.35765 14.9999 4.85765 13.0916 3.41599 9.99992C4.85765 6.90825 7.35765 4.99992 9.99926 4.99992C12.6409 4.99992 15.1409 6.90825 16.5826 9.99992C15.1409 13.0916 12.6409 14.9999 9.99926 14.9999ZM9.99926 6.66658C9.34001 6.66658 8.69559 6.86208 8.14742 7.22835C7.59926 7.59463 7.17202 8.11522 6.91973 8.72433C6.66744 9.33342 6.60142 10.0036 6.73004 10.6503C6.85865 11.2968 7.17613 11.8908 7.6423 12.3569C8.10848 12.8231 8.70243 13.1406 9.34901 13.2692C9.99559 13.3978 10.6658 13.3318 11.2749 13.0795C11.884 12.8273 12.4046 12.4 12.7708 11.8518C13.1371 11.3037 13.3326 10.6592 13.3326 9.99992C13.3326 9.11583 12.9814 8.26802 12.3563 7.64289C11.7312 7.01778 10.8833 6.66658 9.99926 6.66658ZM9.99926 11.6666C9.66968 11.6666 9.34743 11.5688 9.07334 11.3857C8.79926 11.2026 8.58568 10.9423 8.45951 10.6378C8.33334 10.3332 8.30037 9.99808 8.36468 9.67475C8.42893 9.3515 8.58768 9.0545 8.82076 8.82142C9.05384 8.58833 9.35084 8.42958 9.67418 8.36525C9.99743 8.30097 10.3326 8.334 10.6371 8.46008C10.9417 8.58625 11.2019 8.79992 11.3851 9.074C11.5682 9.34808 11.6659 9.67025 11.6659 9.99992C11.6659 10.4419 11.4903 10.8658 11.1778 11.1784C10.8653 11.491 10.4413 11.6666 9.99926 11.6666Z" fill="#040404"/>
</svg>
