<svg width="30" height="30" viewBox="0 0 30 30" fill="none" xmlns="http://www.w3.org/2000/svg">
<path d="M13.6752 7.59999C14.1137 7.53278 14.5567 7.49935 15.0002 7.49999C18.9752 7.49999 22.7127 10.3625 24.8877 15C24.5551 15.7057 24.1794 16.3904 23.7627 17.05C23.6305 17.2548 23.5609 17.4937 23.5627 17.7375C23.5655 18.0103 23.6575 18.2747 23.8246 18.4903C23.9917 18.706 24.2247 18.8611 24.4882 18.9319C24.7516 19.0027 25.031 18.9854 25.2837 18.8826C25.5364 18.7798 25.7485 18.5971 25.8877 18.3625C26.4701 17.4474 26.976 16.4858 27.4002 15.4875C27.4673 15.3315 27.5019 15.1635 27.5019 14.9937C27.5019 14.824 27.4673 14.656 27.4002 14.5C24.8752 8.63749 20.1252 4.99999 15.0002 4.99999C14.4136 4.99703 13.8278 5.04724 13.2502 5.14999C13.0861 5.17789 12.929 5.23786 12.7881 5.32646C12.6471 5.41506 12.5249 5.53056 12.4286 5.66636C12.3322 5.80217 12.2636 5.95562 12.2266 6.11796C12.1895 6.28029 12.1848 6.44834 12.2127 6.61249C12.2406 6.77664 12.3006 6.93369 12.3892 7.07467C12.4778 7.21564 12.5933 7.33779 12.7291 7.43413C12.8649 7.53047 13.0184 7.59912 13.1807 7.63616C13.343 7.67319 13.5111 7.67789 13.6752 7.64999V7.59999ZM4.63773 2.86249C4.52118 2.74594 4.38282 2.65349 4.23054 2.59041C4.07827 2.52734 3.91506 2.49487 3.75023 2.49487C3.58541 2.49487 3.4222 2.52734 3.26992 2.59041C3.11764 2.65349 2.97928 2.74594 2.86273 2.86249C2.62735 3.09787 2.49512 3.41711 2.49512 3.74999C2.49512 4.08286 2.62735 4.40211 2.86273 4.63749L6.73773 8.49999C4.9697 10.2019 3.56255 12.2425 2.60023 14.5C2.5314 14.6577 2.49588 14.8279 2.49588 15C2.49588 15.1721 2.5314 15.3423 2.60023 15.5C5.12523 21.3625 9.87523 25 15.0002 25C17.2466 24.9845 19.4399 24.3156 21.3127 23.075L25.3627 27.1375C25.4789 27.2546 25.6172 27.3476 25.7695 27.4111C25.9218 27.4746 26.0852 27.5072 26.2502 27.5072C26.4152 27.5072 26.5786 27.4746 26.731 27.4111C26.8833 27.3476 27.0215 27.2546 27.1377 27.1375C27.2549 27.0213 27.3479 26.883 27.4113 26.7307C27.4748 26.5784 27.5075 26.415 27.5075 26.25C27.5075 26.085 27.4748 25.9216 27.4113 25.7693C27.3479 25.6169 27.2549 25.4787 27.1377 25.3625L4.63773 2.86249ZM12.5877 14.35L15.6502 17.4125C15.439 17.4731 15.22 17.5025 15.0002 17.5C14.3372 17.5 13.7013 17.2366 13.2325 16.7678C12.7636 16.2989 12.5002 15.663 12.5002 15C12.4977 14.7802 12.5271 14.5613 12.5877 14.35ZM15.0002 22.5C11.0252 22.5 7.28773 19.6375 5.12523 15C5.93284 13.2172 7.07907 11.6082 8.50023 10.2625L10.7127 12.5C10.193 13.4485 9.99491 14.5399 10.1481 15.6106C10.3012 16.6812 10.7974 17.6733 11.5621 18.4381C12.3269 19.2028 13.319 19.699 14.3897 19.8522C15.4603 20.0053 16.5517 19.8072 17.5002 19.2875L19.4877 21.25C18.1266 22.0511 16.5795 22.482 15.0002 22.5Z" fill="#555555"/>
</svg>
