<svg width="20" height="20" viewBox="0 0 20 20" fill="none" xmlns="http://www.w3.org/2000/svg">
<path d="M9.11651 5.06674C9.40876 5.02193 9.70409 4.99965 9.99984 5.00007C12.6498 5.00007 15.1415 6.9084 16.5915 10C16.3698 10.4705 16.1193 10.927 15.8415 11.3667C15.7533 11.5033 15.7069 11.6625 15.7082 11.825C15.71 12.007 15.7713 12.1832 15.8827 12.327C15.9941 12.4707 16.1495 12.5741 16.3251 12.6214C16.5008 12.6685 16.687 12.657 16.8555 12.5885C17.0239 12.52 17.1653 12.3981 17.2582 12.2417C17.6464 11.6317 17.9837 10.9906 18.2665 10.325C18.3112 10.2211 18.3343 10.1091 18.3343 9.99587C18.3343 9.8827 18.3112 9.7707 18.2665 9.6667C16.5832 5.75841 13.4165 3.3334 9.99984 3.3334C9.60876 3.33144 9.21826 3.3649 8.83318 3.4334C8.72376 3.45201 8.61901 3.49199 8.52501 3.55105C8.43109 3.61012 8.34959 3.68712 8.2854 3.77765C8.22118 3.8682 8.17541 3.9705 8.15072 4.07872C8.12603 4.18695 8.12289 4.29897 8.14149 4.4084C8.1601 4.51784 8.20008 4.62254 8.25914 4.71652C8.31821 4.81051 8.39518 4.89194 8.48576 4.95617C8.57626 5.0204 8.67859 5.06616 8.78684 5.09085C8.89501 5.11555 9.00709 5.11868 9.11651 5.10007V5.06674ZM3.0915 1.90841C3.0138 1.83071 2.92156 1.76907 2.82004 1.72702C2.71852 1.68497 2.60971 1.66333 2.49984 1.66333C2.38995 1.66333 2.28114 1.68497 2.17963 1.72702C2.0781 1.76907 1.98586 1.83071 1.90817 1.90841C1.75124 2.06532 1.66309 2.27815 1.66309 2.50007C1.66309 2.72199 1.75124 2.93482 1.90817 3.09174L4.4915 5.66674C3.31281 6.80135 2.37471 8.16173 1.73317 9.6667C1.68728 9.77187 1.66359 9.88537 1.66359 10C1.66359 10.1148 1.68728 10.2283 1.73317 10.3334C3.4165 14.2417 6.58317 16.6667 9.99984 16.6667C11.4974 16.6564 12.9597 16.2105 14.2082 15.3834L16.9082 18.0917C16.9856 18.1699 17.0778 18.2319 17.1793 18.2741C17.2809 18.3165 17.3898 18.3382 17.4998 18.3382C17.6098 18.3382 17.7188 18.3165 17.8203 18.2741C17.9218 18.2319 18.014 18.1699 18.0915 18.0917C18.1696 18.0143 18.2316 17.9221 18.2739 17.8205C18.3162 17.719 18.338 17.6101 18.338 17.5C18.338 17.39 18.3162 17.2811 18.2739 17.1796C18.2316 17.078 18.1696 16.9859 18.0915 16.9084L3.0915 1.90841ZM8.39151 9.5667L10.4332 11.6084C10.2923 11.6488 10.1463 11.6685 9.99984 11.6667C9.55784 11.6667 9.13385 11.4911 8.82135 11.1786C8.50876 10.866 8.33318 10.4421 8.33318 10C8.33146 9.85354 8.35109 9.70762 8.39151 9.5667ZM9.99984 15C7.34983 15 4.85817 13.0917 3.4165 10C3.9549 8.81154 4.71906 7.73889 5.6665 6.84174L7.1415 8.3334C6.79504 8.9657 6.66295 9.69337 6.76504 10.4071C6.86714 11.1209 7.19793 11.7823 7.70777 12.2921C8.21761 12.802 8.87901 13.1328 9.59276 13.2349C10.3065 13.337 11.0342 13.2049 11.6665 12.8584L12.9915 14.1667C12.0841 14.7008 11.0527 14.9881 9.99984 15Z" fill="black"/>
</svg>
