<svg width="94" height="94" viewBox="0 0 94 94" fill="none" xmlns="http://www.w3.org/2000/svg">
<path d="M58.7498 48.9583C57.992 48.9633 57.252 49.1879 56.6194 49.605C55.9867 50.0221 55.4887 50.6138 55.1856 51.3083C52.7151 49.784 49.8697 48.976 46.9668 48.9745C44.0638 48.9731 41.2176 49.7782 38.7456 51.3001C36.2736 52.822 34.273 55.0007 32.9671 57.5933C31.6611 60.1859 31.1012 63.0903 31.3498 65.9826C31.5983 68.8749 32.6456 71.6412 34.3747 73.973C36.1038 76.3047 38.4468 78.1102 41.1422 79.188C43.8376 80.2658 46.7795 80.5735 49.6396 80.0768C52.4997 79.5801 55.1656 78.2985 57.3398 76.375C57.7515 76.0433 58.0919 75.6318 58.3403 75.165C58.5888 74.6983 58.7401 74.1861 58.7853 73.6594C58.8305 73.1326 58.7685 72.6021 58.6032 72.0999C58.4378 71.5977 58.1725 71.1342 57.8232 70.7372C57.474 70.3403 57.0479 70.0182 56.5708 69.7904C56.0937 69.5625 55.5754 69.4337 55.0472 69.4115C54.5189 69.3893 53.9916 69.4743 53.4971 69.6614C53.0026 69.8485 52.5511 70.1337 52.1698 70.5C50.7417 71.7594 48.9038 72.4556 46.9998 72.4583C45.8098 72.4392 44.6399 72.1491 43.5788 71.6102C42.5178 71.0713 41.5934 70.2977 40.876 69.3482C40.1586 68.3986 39.6669 67.2981 39.4384 66.1302C39.2099 64.9622 39.2505 63.7576 39.5571 62.6077C39.8638 61.4577 40.4284 60.3928 41.2081 59.4937C41.9879 58.5947 42.9622 57.8851 44.0571 57.4188C45.1521 56.9526 46.3389 56.742 47.5274 56.803C48.716 56.864 49.875 57.195 50.9164 57.7708H50.0548C49.016 57.7708 48.0198 58.1835 47.2853 58.918C46.5508 59.6525 46.1381 60.6487 46.1381 61.6875C46.1381 62.7263 46.5508 63.7225 47.2853 64.457C48.0198 65.1915 49.016 65.6042 50.0548 65.6042H58.7498C59.7885 65.6042 60.7848 65.1915 61.5193 64.457C62.2538 63.7225 62.6664 62.7263 62.6664 61.6875V52.875C62.6664 51.8362 62.2538 50.84 61.5193 50.1055C60.7848 49.371 59.7885 48.9583 58.7498 48.9583ZM72.1448 30.2367C69.7517 24.7377 65.6215 20.175 60.3872 17.2479C55.1529 14.3208 49.1033 13.1907 43.1652 14.0307C37.2272 14.8707 31.7284 17.6346 27.5114 21.8988C23.2945 26.1629 20.592 31.6922 19.8181 37.6392C16.5368 38.4384 13.6016 40.2765 11.4499 42.8796C9.29832 45.4828 8.04547 48.7115 7.87814 52.0846C7.7108 55.4577 8.63794 58.7946 10.5214 61.5978C12.4048 64.4011 15.1437 66.5208 18.3298 67.6408C18.736 67.766 19.1581 67.8319 19.5831 67.8367C20.6219 68.0029 21.6841 67.7496 22.5362 67.1326C23.3882 66.5156 23.9602 65.5854 24.1264 64.5467C24.2926 63.5079 24.0394 62.4457 23.4224 61.5936C22.8054 60.7416 21.8752 60.1695 20.8364 60.0033C19.3595 59.4702 18.0769 58.5055 17.155 57.2344C16.2331 55.9633 15.7145 54.4445 15.6664 52.875C15.6664 50.7975 16.4917 48.805 17.9608 47.336C19.4298 45.867 21.4222 45.0417 23.4998 45.0417C24.5385 45.0417 25.5348 44.629 26.2693 43.8945C27.0038 43.16 27.4164 42.1638 27.4164 41.125C27.4265 36.4927 29.0782 32.0139 32.0783 28.4843C35.0784 24.9547 39.2326 22.6029 43.8028 21.8467C48.373 21.0904 53.0633 21.9788 57.0404 24.3539C61.0176 26.7289 64.024 30.437 65.5256 34.8192C65.7495 35.4922 66.1519 36.0918 66.69 36.554C67.228 37.0162 67.8815 37.3235 68.5806 37.4433C70.9359 37.8696 73.1047 39.005 74.7971 40.6976C76.4894 42.3902 77.6245 44.5593 78.0504 46.9146C78.4763 49.2699 78.1728 51.6991 77.1804 53.8772C76.188 56.0553 74.5541 57.8784 72.4973 59.1025C71.5936 59.6219 70.9332 60.479 70.6614 61.4853C70.3896 62.4916 70.5287 63.5646 71.0481 64.4683C71.5675 65.372 72.4246 66.0324 73.4309 66.3042C74.4372 66.576 75.5102 66.4369 76.4139 65.9175C79.3836 64.1938 81.8479 61.7196 83.5596 58.743C85.2713 55.7664 86.1703 52.392 86.1664 48.9583C86.1545 44.7445 84.7838 40.6469 82.2577 37.2742C79.7317 33.9014 76.1851 31.4334 72.1448 30.2367V30.2367Z" fill="white"/>
</svg>
