<svg width="87" height="82" viewBox="0 0 87 82" fill="none" xmlns="http://www.w3.org/2000/svg">
<path d="M0 10C0 4.47715 4.47715 0 10 0H70C75.5229 0 80 4.47715 80 10V70C80 75.5228 75.5229 80 70 80H10C4.47715 80 0 75.5228 0 70V10Z" fill="#F5F5F5"/>
<path d="M36.15 25.0002L37.5 23.5252V32.5002C37.5 33.1633 37.7634 33.7992 38.2322 34.268C38.7011 34.7368 39.337 35.0002 40 35.0002C40.663 35.0002 41.2989 34.7368 41.7678 34.268C42.2366 33.7992 42.5 33.1633 42.5 32.5002V23.5252L43.85 24.9002C44.0769 25.1565 44.3541 25.3635 44.6643 25.5083C44.9745 25.6531 45.3111 25.7327 45.6533 25.742C45.9955 25.7514 46.336 25.6904 46.6536 25.5628C46.9713 25.4352 47.2594 25.2437 47.5 25.0002C47.7343 24.7678 47.9203 24.4913 48.0472 24.1867C48.1741 23.882 48.2395 23.5553 48.2395 23.2252C48.2395 22.8952 48.1741 22.5684 48.0472 22.2638C47.9203 21.9591 47.7343 21.6826 47.5 21.4502L41.775 15.7252C41.5372 15.4976 41.2569 15.3192 40.95 15.2002C40.3413 14.9502 39.6587 14.9502 39.05 15.2002C38.7431 15.3192 38.4628 15.4976 38.225 15.7252L32.5 21.3502C32.016 21.8342 31.7441 22.4907 31.7441 23.1752C31.7441 23.8597 32.016 24.5162 32.5 25.0002C32.984 25.4842 33.6405 25.7562 34.325 25.7562C35.0095 25.7562 35.666 25.4842 36.15 25.0002V25.0002ZM40 40.0002C38.5166 40.0002 37.0666 40.4401 35.8332 41.2642C34.5999 42.0883 33.6386 43.2597 33.0709 44.6301C32.5032 46.0005 32.3547 47.5085 32.6441 48.9634C32.9335 50.4183 33.6478 51.7546 34.6967 52.8035C35.7456 53.8524 37.082 54.5667 38.5368 54.8561C39.9917 55.1455 41.4997 54.997 42.8701 54.4293C44.2406 53.8617 45.4119 52.9004 46.236 51.667C47.0601 50.4336 47.5 48.9836 47.5 47.5002C47.5 45.5111 46.7098 43.6034 45.3033 42.1969C43.8968 40.7904 41.9891 40.0002 40 40.0002ZM40 50.0002C39.5055 50.0002 39.0222 49.8536 38.6111 49.5789C38.2 49.3042 37.8795 48.9138 37.6903 48.4569C37.5011 48.0001 37.4516 47.4975 37.548 47.0125C37.6445 46.5276 37.8826 46.0821 38.2322 45.7325C38.5819 45.3828 39.0273 45.1447 39.5123 45.0483C39.9972 44.9518 40.4999 45.0013 40.9567 45.1905C41.4135 45.3797 41.804 45.7002 42.0787 46.1113C42.3534 46.5224 42.5 47.0058 42.5 47.5002C42.5 48.1633 42.2366 48.7992 41.7678 49.268C41.2989 49.7368 40.663 50.0002 40 50.0002ZM22.5 47.5002C22.5 47.9947 22.6466 48.478 22.9213 48.8892C23.196 49.3003 23.5865 49.6207 24.0433 49.8099C24.5001 49.9991 25.0028 50.0487 25.4877 49.9522C25.9727 49.8557 26.4181 49.6176 26.7678 49.268C27.1174 48.9184 27.3555 48.4729 27.452 47.988C27.5484 47.503 27.4989 47.0003 27.3097 46.5435C27.1205 46.0867 26.8 45.6963 26.3889 45.4216C25.9778 45.1469 25.4945 45.0002 25 45.0002C24.337 45.0002 23.7011 45.2636 23.2322 45.7325C22.7634 46.2013 22.5 46.8372 22.5 47.5002ZM57.5 47.5002C57.5 47.0058 57.3534 46.5224 57.0787 46.1113C56.804 45.7002 56.4135 45.3797 55.9567 45.1905C55.4999 45.0013 54.9972 44.9518 54.5123 45.0483C54.0273 45.1447 53.5819 45.3828 53.2322 45.7325C52.8826 46.0821 52.6445 46.5276 52.548 47.0125C52.4516 47.4975 52.5011 48.0001 52.6903 48.4569C52.8795 48.9138 53.2 49.3042 53.6111 49.5789C54.0222 49.8536 54.5055 50.0002 55 50.0002C55.663 50.0002 56.2989 49.7368 56.7678 49.268C57.2366 48.7992 57.5 48.1633 57.5 47.5002ZM60 30.0002H50C49.337 30.0002 48.7011 30.2636 48.2322 30.7325C47.7634 31.2013 47.5 31.8372 47.5 32.5002C47.5 33.1633 47.7634 33.7992 48.2322 34.268C48.7011 34.7368 49.337 35.0002 50 35.0002H60C60.663 35.0002 61.2989 35.2636 61.7678 35.7325C62.2366 36.2013 62.5 36.8372 62.5 37.5002V57.5002C62.5 58.1633 62.2366 58.7992 61.7678 59.268C61.2989 59.7368 60.663 60.0002 60 60.0002H20C19.337 60.0002 18.7011 59.7368 18.2322 59.268C17.7634 58.7992 17.5 58.1633 17.5 57.5002V37.5002C17.5 36.8372 17.7634 36.2013 18.2322 35.7325C18.7011 35.2636 19.337 35.0002 20 35.0002H30C30.663 35.0002 31.2989 34.7368 31.7678 34.268C32.2366 33.7992 32.5 33.1633 32.5 32.5002C32.5 31.8372 32.2366 31.2013 31.7678 30.7325C31.2989 30.2636 30.663 30.0002 30 30.0002H20C18.0109 30.0002 16.1032 30.7904 14.6967 32.1969C13.2902 33.6035 12.5 35.5111 12.5 37.5002V57.5002C12.5 59.4894 13.2902 61.397 14.6967 62.8035C16.1032 64.2101 18.0109 65.0002 20 65.0002H60C61.9891 65.0002 63.8968 64.2101 65.3033 62.8035C66.7098 61.397 67.5 59.4894 67.5 57.5002V37.5002C67.5 35.5111 66.7098 33.6035 65.3033 32.1969C63.8968 30.7904 61.9891 30.0002 60 30.0002Z" fill="#00943F"/>
<path d="M70 73.5C70 68.8056 73.8056 65 78.5 65C83.1944 65 87 68.8056 87 73.5C87 78.1944 83.1944 82 78.5 82C73.8056 82 70 78.1944 70 73.5Z" fill="#00943F"/>
<path d="M78.47 77.1C77.8367 77.1 77.2933 76.9667 76.84 76.7C76.3867 76.4267 76.04 76.0333 75.8 75.52C75.56 75.0067 75.44 74.3733 75.44 73.62C75.44 72.82 75.5833 72.1433 75.87 71.59C76.1633 71.0367 76.5667 70.6167 77.08 70.33C77.6 70.0433 78.1967 69.9 78.87 69.9C79.2233 69.9 79.56 69.9367 79.88 70.01C80.2067 70.0833 80.4833 70.1967 80.71 70.35L80.23 71.33C80.0367 71.2033 79.8267 71.1167 79.6 71.07C79.38 71.0167 79.1467 70.99 78.9 70.99C78.24 70.99 77.7167 71.1933 77.33 71.6C76.9433 72.0067 76.75 72.6067 76.75 73.4C76.75 73.5267 76.7533 73.6767 76.76 73.85C76.7667 74.0167 76.79 74.1867 76.83 74.36L76.43 73.92C76.55 73.6467 76.7133 73.42 76.92 73.24C77.1333 73.0533 77.3833 72.9133 77.67 72.82C77.9633 72.7267 78.28 72.68 78.62 72.68C79.08 72.68 79.49 72.77 79.85 72.95C80.21 73.1233 80.4967 73.3733 80.71 73.7C80.9233 74.02 81.03 74.3967 81.03 74.83C81.03 75.29 80.9167 75.69 80.69 76.03C80.4633 76.37 80.1567 76.6333 79.77 76.82C79.3833 77.0067 78.95 77.1 78.47 77.1ZM78.4 76.08C78.6667 76.08 78.9033 76.0333 79.11 75.94C79.3167 75.84 79.4767 75.7 79.59 75.52C79.71 75.34 79.77 75.13 79.77 74.89C79.77 74.5233 79.6433 74.2333 79.39 74.02C79.1367 73.8067 78.7967 73.7 78.37 73.7C78.09 73.7 77.8433 73.7533 77.63 73.86C77.4233 73.96 77.2567 74.1 77.13 74.28C77.01 74.46 76.95 74.6667 76.95 74.9C76.95 75.1133 77.0067 75.31 77.12 75.49C77.2333 75.67 77.3967 75.8133 77.61 75.92C77.83 76.0267 78.0933 76.08 78.4 76.08Z" fill="white"/>
</svg>
