<svg width="85" height="87" viewBox="0 0 85 87" fill="none" xmlns="http://www.w3.org/2000/svg">
<path d="M5 17C5 11.4772 9.47715 7 15 7H75C80.5229 7 85 11.4772 85 17V77C85 82.5228 80.5229 87 75 87H15C9.47715 87 5 82.5228 5 77V17Z" fill="#F5F5F5"/>
<path d="M17.5 47.25V59.75C17.5 60.413 17.7634 61.0489 18.2322 61.5178C18.7011 61.9866 19.337 62.25 20 62.25H22.5C22.5 64.2391 23.2902 66.1468 24.6967 67.5533C26.1032 68.9598 28.0109 69.75 30 69.75C31.9891 69.75 33.8968 68.9598 35.3033 67.5533C36.7098 66.1468 37.5 64.2391 37.5 62.25H52.5C52.5 64.2391 53.2902 66.1468 54.6967 67.5533C56.1032 68.9598 58.0109 69.75 60 69.75C61.9891 69.75 63.8968 68.9598 65.3033 67.5533C66.7098 66.1468 67.5 64.2391 67.5 62.25H70C70.663 62.25 71.2989 61.9866 71.7678 61.5178C72.2366 61.0489 72.5 60.413 72.5 59.75V29.75C72.5 27.7609 71.7098 25.8532 70.3033 24.4467C68.8968 23.0402 66.9891 22.25 65 22.25H42.5C40.5109 22.25 38.6032 23.0402 37.1967 24.4467C35.7902 25.8532 35 27.7609 35 29.75V34.75H30C28.8357 34.75 27.6873 35.0211 26.6459 35.5418C25.6045 36.0625 24.6986 36.8185 24 37.75L18 45.75C17.9269 45.8587 17.8681 45.9763 17.825 46.1L17.675 46.375C17.5647 46.6538 17.5054 46.9502 17.5 47.25V47.25ZM57.5 62.25C57.5 61.7555 57.6466 61.2722 57.9213 60.8611C58.196 60.45 58.5865 60.1295 59.0433 59.9403C59.5001 59.7511 60.0028 59.7016 60.4877 59.798C60.9727 59.8945 61.4181 60.1326 61.7678 60.4822C62.1174 60.8319 62.3555 61.2773 62.452 61.7623C62.5484 62.2472 62.4989 62.7499 62.3097 63.2067C62.1205 63.6635 61.8 64.054 61.3889 64.3287C60.9778 64.6034 60.4945 64.75 60 64.75C59.337 64.75 58.7011 64.4866 58.2322 64.0178C57.7634 63.5489 57.5 62.913 57.5 62.25ZM40 29.75C40 29.087 40.2634 28.4511 40.7322 27.9822C41.2011 27.5134 41.837 27.25 42.5 27.25H65C65.663 27.25 66.2989 27.5134 66.7678 27.9822C67.2366 28.4511 67.5 29.087 67.5 29.75V57.25H65.55C64.847 56.4766 63.9902 55.8587 63.0345 55.4358C62.0787 55.013 61.0451 54.7946 60 54.7946C58.9549 54.7946 57.9213 55.013 56.9655 55.4358C56.0098 55.8587 55.153 56.4766 54.45 57.25H40V29.75ZM35 44.75H25L28 40.75C28.2329 40.4395 28.5348 40.1875 28.882 40.0139C29.2291 39.8404 29.6119 39.75 30 39.75H35V44.75ZM27.5 62.25C27.5 61.7555 27.6466 61.2722 27.9213 60.8611C28.196 60.45 28.5865 60.1295 29.0433 59.9403C29.5001 59.7511 30.0028 59.7016 30.4877 59.798C30.9727 59.8945 31.4181 60.1326 31.7678 60.4822C32.1174 60.8319 32.3555 61.2773 32.452 61.7623C32.5484 62.2472 32.4989 62.7499 32.3097 63.2067C32.1205 63.6635 31.8 64.054 31.3889 64.3287C30.9778 64.6034 30.4945 64.75 30 64.75C29.337 64.75 28.7011 64.4866 28.2322 64.0178C27.7634 63.5489 27.5 62.913 27.5 62.25ZM22.5 49.75H35V56.7C33.5246 55.3814 31.5878 54.6993 29.6117 54.8023C27.6356 54.9053 25.7803 55.7851 24.45 57.25H22.5V49.75Z" fill="#00943F"/>
<path d="M0 8.5C0 3.80558 3.80558 0 8.5 0C13.1944 0 17 3.80558 17 8.5C17 13.1944 13.1944 17 8.5 17C3.80558 17 0 13.1944 0 8.5Z" fill="#00943F"/>
<path d="M4.34 10.41V9.51L7.79 5H9.18L5.78 9.51L5.13 9.31H10.68V10.41H4.34ZM8.18 12V10.41L8.22 9.31V7.9H9.44V12H8.18Z" fill="white"/>
</svg>
