<svg width="84" height="82" viewBox="0 0 84 82" fill="none" xmlns="http://www.w3.org/2000/svg">
<path d="M0 10C0 4.47715 4.47715 0 10 0H70C75.5228 0 80 4.47715 80 10V70C80 75.5228 75.5228 80 70 80H10C4.47715 80 0 75.5228 0 70V10Z" fill="#00943F"/>
<path d="M65 15H15C14.337 15 13.7011 15.2634 13.2322 15.7322C12.7634 16.2011 12.5 16.837 12.5 17.5V37.5C12.5 38.163 12.7634 38.7989 13.2322 39.2678C13.7011 39.7366 14.337 40 15 40H22.5V62.5C22.5 63.163 22.7634 63.7989 23.2322 64.2678C23.7011 64.7366 24.337 65 25 65H55C55.663 65 56.2989 64.7366 56.7678 64.2678C57.2366 63.7989 57.5 63.163 57.5 62.5V40H65C65.663 40 66.2989 39.7366 66.7678 39.2678C67.2366 38.7989 67.5 38.163 67.5 37.5V17.5C67.5 16.837 67.2366 16.2011 66.7678 15.7322C66.2989 15.2634 65.663 15 65 15V15ZM27.5 60V55C28.8261 55 30.0979 55.5268 31.0355 56.4645C31.9732 57.4021 32.5 58.6739 32.5 60H27.5ZM52.5 60H47.5C47.5 58.6739 48.0268 57.4021 48.9645 56.4645C49.9021 55.5268 51.1739 55 52.5 55V60ZM52.5 50C49.8478 50 47.3043 51.0536 45.4289 52.9289C43.5536 54.8043 42.5 57.3478 42.5 60H37.5C37.5 57.3478 36.4464 54.8043 34.5711 52.9289C32.6957 51.0536 30.1522 50 27.5 50V30H52.5V50ZM62.5 35H57.5V27.5C57.5 26.837 57.2366 26.2011 56.7678 25.7322C56.2989 25.2634 55.663 25 55 25H25C24.337 25 23.7011 25.2634 23.2322 25.7322C22.7634 26.2011 22.5 26.837 22.5 27.5V35H17.5V20H62.5V35ZM40 47.5C41.4834 47.5 42.9334 47.0601 44.1668 46.236C45.4001 45.4119 46.3614 44.2406 46.9291 42.8701C47.4968 41.4997 47.6453 39.9917 47.3559 38.5368C47.0665 37.082 46.3522 35.7456 45.3033 34.6967C44.2544 33.6478 42.918 32.9335 41.4632 32.6441C40.0083 32.3547 38.5003 32.5032 37.1299 33.0709C35.7594 33.6386 34.5881 34.5999 33.764 35.8332C32.9399 37.0666 32.5 38.5166 32.5 40C32.5 41.9891 33.2902 43.8968 34.6967 45.3033C36.1032 46.7098 38.0109 47.5 40 47.5ZM40 37.5C40.4945 37.5 40.9778 37.6466 41.3889 37.9213C41.8 38.196 42.1205 38.5865 42.3097 39.0433C42.4989 39.5001 42.5484 40.0028 42.452 40.4877C42.3555 40.9727 42.1174 41.4181 41.7678 41.7678C41.4181 42.1174 40.9727 42.3555 40.4877 42.452C40.0028 42.5484 39.5001 42.4989 39.0433 42.3097C38.5865 42.1205 38.196 41.8 37.9213 41.3889C37.6466 40.9778 37.5 40.4945 37.5 40C37.5 39.337 37.7634 38.7011 38.2322 38.2322C38.7011 37.7634 39.337 37.5 40 37.5V37.5Z" fill="white"/>
<path d="M67 73.5C67 68.8056 70.8056 65 75.5 65V65C80.1944 65 84 68.8056 84 73.5V73.5C84 78.1944 80.1944 82 75.5 82V82C70.8056 82 67 78.1944 67 73.5V73.5Z" fill="#474646"/>
<path d="M75.76 77.1C75.2667 77.1 74.7833 77.03 74.31 76.89C73.8433 76.7433 73.45 76.5433 73.13 76.29L73.68 75.28C73.9333 75.4867 74.24 75.6533 74.6 75.78C74.9667 75.9067 75.3467 75.97 75.74 75.97C76.2 75.97 76.56 75.8733 76.82 75.68C77.0867 75.4867 77.22 75.2267 77.22 74.9C77.22 74.68 77.1633 74.4867 77.05 74.32C76.9433 74.1533 76.75 74.0267 76.47 73.94C76.1967 73.8533 75.82 73.81 75.34 73.81H73.65L74.01 70H78.12V71.09H74.49L75.17 70.47L74.9 73.32L74.22 72.71H75.63C76.3233 72.71 76.88 72.8033 77.3 72.99C77.7267 73.17 78.0367 73.4233 78.23 73.75C78.43 74.07 78.53 74.4367 78.53 74.85C78.53 75.2567 78.43 75.63 78.23 75.97C78.03 76.31 77.7233 76.5833 77.31 76.79C76.9033 76.9967 76.3867 77.1 75.76 77.1Z" fill="white"/>
</svg>
