<svg width="85" height="87" viewBox="0 0 85 87" fill="none" xmlns="http://www.w3.org/2000/svg">
<path d="M5 17C5 11.4772 9.47715 7 15 7H75C80.5229 7 85 11.4772 85 17V77C85 82.5228 80.5229 87 75 87H15C9.47715 87 5 82.5228 5 77V17Z" fill="#F5F5F5"/>
<path d="M45 47C43.5166 47 42.0666 47.4399 40.8332 48.264C39.5999 49.0881 38.6386 50.2594 38.0709 51.6299C37.5032 53.0003 37.3547 54.5083 37.6441 55.9632C37.9335 57.418 38.6478 58.7544 39.6967 59.8033C40.7456 60.8522 42.082 61.5665 43.5368 61.8559C44.9917 62.1453 46.4997 61.9968 47.8701 61.4291C49.2406 60.8614 50.4119 59.9001 51.236 58.6668C52.0601 57.4334 52.5 55.9834 52.5 54.5C52.5 52.5109 51.7098 50.6032 50.3033 49.1967C48.8968 47.7902 46.9891 47 45 47ZM45 57C44.5055 57 44.0222 56.8534 43.6111 56.5787C43.2 56.304 42.8795 55.9135 42.6903 55.4567C42.5011 54.9999 42.4516 54.4972 42.548 54.0123C42.6445 53.5273 42.8826 53.0819 43.2322 52.7322C43.5819 52.3826 44.0273 52.1445 44.5123 52.048C44.9972 51.9516 45.4999 52.0011 45.9567 52.1903C46.4135 52.3795 46.804 52.7 47.0787 53.1111C47.3534 53.5222 47.5 54.0055 47.5 54.5C47.5 55.163 47.2366 55.7989 46.7678 56.2678C46.2989 56.7366 45.663 57 45 57ZM43.225 41.275C43.4628 41.5026 43.7431 41.681 44.05 41.8C44.3493 41.9323 44.6728 42.0006 45 42.0006C45.3272 42.0006 45.6507 41.9323 45.95 41.8C46.2569 41.681 46.5372 41.5026 46.775 41.275L52.5 35.65C52.984 35.166 53.2559 34.5095 53.2559 33.825C53.2559 33.1405 52.984 32.484 52.5 32C52.016 31.516 51.3595 31.2441 50.675 31.2441C49.9905 31.2441 49.334 31.516 48.85 32L47.5 33.475V24.5C47.5 23.837 47.2366 23.2011 46.7678 22.7322C46.2989 22.2634 45.663 22 45 22C44.337 22 43.7011 22.2634 43.2322 22.7322C42.7634 23.2011 42.5 23.837 42.5 24.5V33.475L41.15 32C40.666 31.516 40.0095 31.2441 39.325 31.2441C38.6405 31.2441 37.984 31.516 37.5 32C37.016 32.484 36.7441 33.1405 36.7441 33.825C36.7441 34.5095 37.016 35.166 37.5 35.65L43.225 41.275ZM62.5 54.5C62.5 54.0055 62.3534 53.5222 62.0787 53.1111C61.804 52.7 61.4135 52.3795 60.9567 52.1903C60.4999 52.0011 59.9972 51.9516 59.5123 52.048C59.0273 52.1445 58.5819 52.3826 58.2322 52.7322C57.8826 53.0819 57.6445 53.5273 57.548 54.0123C57.4516 54.4972 57.5011 54.9999 57.6903 55.4567C57.8795 55.9135 58.2 56.304 58.6111 56.5787C59.0222 56.8534 59.5055 57 60 57C60.663 57 61.2989 56.7366 61.7678 56.2678C62.2366 55.7989 62.5 55.163 62.5 54.5ZM65 37H57.5C56.837 37 56.2011 37.2634 55.7322 37.7322C55.2634 38.2011 55 38.837 55 39.5C55 40.163 55.2634 40.7989 55.7322 41.2678C56.2011 41.7366 56.837 42 57.5 42H65C65.663 42 66.2989 42.2634 66.7678 42.7322C67.2366 43.2011 67.5 43.837 67.5 44.5V64.5C67.5 65.163 67.2366 65.7989 66.7678 66.2678C66.2989 66.7366 65.663 67 65 67H25C24.337 67 23.7011 66.7366 23.2322 66.2678C22.7634 65.7989 22.5 65.163 22.5 64.5V44.5C22.5 43.837 22.7634 43.2011 23.2322 42.7322C23.7011 42.2634 24.337 42 25 42H32.5C33.163 42 33.7989 41.7366 34.2678 41.2678C34.7366 40.7989 35 40.163 35 39.5C35 38.837 34.7366 38.2011 34.2678 37.7322C33.7989 37.2634 33.163 37 32.5 37H25C23.0109 37 21.1032 37.7902 19.6967 39.1967C18.2902 40.6032 17.5 42.5109 17.5 44.5V64.5C17.5 66.4891 18.2902 68.3968 19.6967 69.8033C21.1032 71.2098 23.0109 72 25 72H65C66.9891 72 68.8968 71.2098 70.3033 69.8033C71.7098 68.3968 72.5 66.4891 72.5 64.5V44.5C72.5 42.5109 71.7098 40.6032 70.3033 39.1967C68.8968 37.7902 66.9891 37 65 37ZM27.5 54.5C27.5 54.9945 27.6466 55.4778 27.9213 55.8889C28.196 56.3 28.5865 56.6205 29.0433 56.8097C29.5001 56.9989 30.0028 57.0484 30.4877 56.952C30.9727 56.8555 31.4181 56.6174 31.7678 56.2678C32.1174 55.9181 32.3555 55.4727 32.452 54.9877C32.5484 54.5028 32.4989 54.0001 32.3097 53.5433C32.1205 53.0865 31.8 52.696 31.3889 52.4213C30.9778 52.1466 30.4945 52 30 52C29.337 52 28.7011 52.2634 28.2322 52.7322C27.7634 53.2011 27.5 53.837 27.5 54.5Z" fill="#00943F"/>
<path d="M0 8.5C0 3.80558 3.80558 0 8.5 0C13.1944 0 17 3.80558 17 8.5C17 13.1944 13.1944 17 8.5 17C3.80558 17 0 13.1944 0 8.5Z" fill="#00943F"/>
<path d="M8.64 12.1C8.14667 12.1 7.66333 12.03 7.19 11.89C6.72333 11.7433 6.33 11.5433 6.01 11.29L6.57 10.28C6.82333 10.4867 7.13 10.6533 7.49 10.78C7.85 10.9067 8.22667 10.97 8.62 10.97C9.08667 10.97 9.45 10.8767 9.71 10.69C9.97 10.4967 10.1 10.2367 10.1 9.91C10.1 9.59 9.98 9.33667 9.74 9.15C9.5 8.96333 9.11333 8.87 8.58 8.87H7.94V7.98L9.94 5.6L10.11 6.09H6.35V5H11.12V5.87L9.12 8.25L8.44 7.85H8.83C9.69 7.85 10.3333 8.04333 10.76 8.43C11.1933 8.81 11.41 9.3 11.41 9.9C11.41 10.2933 11.31 10.6567 11.11 10.99C10.91 11.3233 10.6033 11.5933 10.19 11.8C9.78333 12 9.26667 12.1 8.64 12.1Z" fill="white"/>
</svg>
