<svg width="84" height="85" viewBox="0 0 84 85" fill="none" xmlns="http://www.w3.org/2000/svg">
<path d="M4 15C4 9.47715 8.47715 5 14 5H74C79.5228 5 84 9.47715 84 15V75C84 80.5228 79.5228 85 74 85H14C8.47715 85 4 80.5228 4 75V15Z" fill="#F5F5F5"/>
<path d="M45.775 43.225C45.5372 42.9974 45.2569 42.819 44.95 42.7C44.3413 42.45 43.6587 42.45 43.05 42.7C42.7431 42.819 42.4628 42.9974 42.225 43.225L37.225 48.225C36.7542 48.6958 36.4898 49.3342 36.4898 50C36.4898 50.6658 36.7542 51.3042 37.225 51.775C37.6958 52.2458 38.3342 52.5102 39 52.5102C39.6658 52.5102 40.3042 52.2458 40.775 51.775L41.5 51.025V57.5C41.5 58.163 41.7634 58.7989 42.2322 59.2678C42.7011 59.7366 43.337 60 44 60C44.663 60 45.2989 59.7366 45.7678 59.2678C46.2366 58.7989 46.5 58.163 46.5 57.5V51.025L47.225 51.775C47.4574 52.0093 47.7339 52.1953 48.0386 52.3222C48.3432 52.4491 48.67 52.5145 49 52.5145C49.33 52.5145 49.6568 52.4491 49.9614 52.3222C50.2661 52.1953 50.5426 52.0093 50.775 51.775C51.0093 51.5426 51.1953 51.2661 51.3222 50.9614C51.4491 50.6568 51.5145 50.33 51.5145 50C51.5145 49.67 51.4491 49.3432 51.3222 49.0386C51.1953 48.7339 51.0093 48.4574 50.775 48.225L45.775 43.225ZM64 37.35C63.974 37.1203 63.9237 36.8941 63.85 36.675V36.45C63.7298 36.1929 63.5695 35.9567 63.375 35.75V35.75L48.375 20.75C48.1683 20.5555 47.9321 20.3952 47.675 20.275H47.425C47.1819 20.145 46.9207 20.0523 46.65 20H31.5C29.5109 20 27.6032 20.7902 26.1967 22.1967C24.7902 23.6032 24 25.5109 24 27.5V62.5C24 64.4891 24.7902 66.3968 26.1967 67.8033C27.6032 69.2098 29.5109 70 31.5 70H56.5C58.4891 70 60.3968 69.2098 61.8033 67.8033C63.2098 66.3968 64 64.4891 64 62.5V37.5C64 37.5 64 37.5 64 37.35ZM49 28.525L55.475 35H51.5C50.837 35 50.2011 34.7366 49.7322 34.2678C49.2634 33.7989 49 33.163 49 32.5V28.525ZM59 62.5C59 63.163 58.7366 63.7989 58.2678 64.2678C57.7989 64.7366 57.163 65 56.5 65H31.5C30.837 65 30.2011 64.7366 29.7322 64.2678C29.2634 63.7989 29 63.163 29 62.5V27.5C29 26.837 29.2634 26.2011 29.7322 25.7322C30.2011 25.2634 30.837 25 31.5 25H44V32.5C44 34.4891 44.7902 36.3968 46.1967 37.8033C47.6032 39.2098 49.5109 40 51.5 40H59V62.5Z" fill="#00943F" fill-opacity="0.5"/>
<path d="M0 8.5C0 3.80558 3.80558 0 8.5 0V0C13.1944 0 17 3.80558 17 8.5V8.5C17 13.1944 13.1944 17 8.5 17V17C3.80558 17 0 13.1944 0 8.5V8.5Z" fill="#00943F" fill-opacity="0.5"/>
<path d="M7.56 12V5.5L8.13 6.09H6.08V5H8.86V12H7.56Z" fill="white"/>
</svg>
