<svg width="86" height="90" viewBox="0 0 86 90" fill="none" xmlns="http://www.w3.org/2000/svg">
<path d="M2 15C2 9.47715 6.47715 5 12 5H72C77.5228 5 82 9.47715 82 15V75C82 80.5228 77.5228 85 72 85H12C6.47715 85 2 80.5228 2 75V15Z" fill="#F5F5F5"/>
<path d="M64.5 39.9997C64.8283 39.9998 65.1535 39.9352 65.4568 39.8096C65.7602 39.684 66.0358 39.4999 66.268 39.2677C66.5001 39.0355 66.6843 38.7599 66.8099 38.4566C66.9355 38.1532 67.0001 37.8281 67 37.4997V29.9997C67.0002 29.4752 66.8352 28.9639 66.5285 28.5384C66.2217 28.1128 65.7888 27.7947 65.291 27.6291L42.791 20.1292C42.2775 19.9583 41.7225 19.9583 41.209 20.1292L18.709 27.6291C18.2112 27.7947 17.7783 28.1128 17.4715 28.5384C17.1648 28.9639 16.9998 29.4752 17 29.9997V37.4997C16.9999 37.8281 17.0645 38.1532 17.1901 38.4566C17.3157 38.7599 17.4999 39.0355 17.732 39.2677C17.9642 39.4999 18.2398 39.684 18.5432 39.8096C18.8465 39.9352 19.1717 39.9998 19.5 39.9997H22V57.9604C20.5418 58.474 19.2784 59.4264 18.3832 60.6868C17.4879 61.9472 17.0048 63.4538 17 64.9997V69.9997C16.9999 70.3281 17.0645 70.6532 17.1901 70.9566C17.3157 71.2599 17.4999 71.5355 17.732 71.7677C17.9642 71.9999 18.2398 72.184 18.5432 72.3096C18.8465 72.4352 19.1717 72.4998 19.5 72.4997H64.5C64.8283 72.4998 65.1535 72.4352 65.4568 72.3096C65.7602 72.184 66.0358 71.9999 66.268 71.7677C66.5001 71.5355 66.6843 71.2599 66.8099 70.9566C66.9355 70.6532 67.0001 70.3281 67 69.9997V64.9997C66.9952 63.4538 66.5121 61.9472 65.6168 60.6868C64.7216 59.4264 63.4582 58.474 62 57.9604V39.9997H64.5ZM62 67.4997H22V64.9997C22.0007 64.3369 22.2643 63.7014 22.733 63.2327C23.2017 62.764 23.8372 62.5004 24.5 62.4997H59.5C60.1628 62.5004 60.7983 62.764 61.267 63.2327C61.7357 63.7014 61.9993 64.3369 62 64.9997V67.4997ZM27 57.4997V39.9997H32V57.4997H27ZM37 57.4997V39.9997H47V57.4997H37ZM52 57.4997V39.9997H57V57.4997H52ZM22 34.9997V31.8015L42 25.134L62 31.8015V34.9997H22Z" fill="#00943F" fill-opacity="0.5"/>
<path d="M0 8.5C0 3.80558 3.80558 0 8.5 0V0C13.1944 0 17 3.80558 17 8.5V8.5C17 13.1944 13.1944 17 8.5 17V17C3.80558 17 0 13.1944 0 8.5V8.5Z" fill="#00943F" fill-opacity="0.5"/>
<path d="M6.35 12V11.13L9.13 8.49C9.36333 8.27 9.53667 8.07667 9.65 7.91C9.76333 7.74333 9.83667 7.59 9.87 7.45C9.91 7.30333 9.93 7.16667 9.93 7.04C9.93 6.72 9.82 6.47333 9.6 6.3C9.38 6.12 9.05667 6.03 8.63 6.03C8.29 6.03 7.98 6.09 7.7 6.21C7.42667 6.33 7.19 6.51333 6.99 6.76L6.08 6.06C6.35333 5.69333 6.72 5.41 7.18 5.21C7.64667 5.00333 8.16667 4.9 8.74 4.9C9.24667 4.9 9.68667 4.98333 10.06 5.15C10.44 5.31 10.73 5.54 10.93 5.84C11.1367 6.14 11.24 6.49667 11.24 6.91C11.24 7.13667 11.21 7.36333 11.15 7.59C11.09 7.81 10.9767 8.04333 10.81 8.29C10.6433 8.53667 10.4 8.81333 10.08 9.12L7.69 11.39L7.42 10.9H11.51V12H6.35Z" fill="white"/>
<path d="M69 81.5C69 76.8056 72.8056 73 77.5 73V73C82.1944 73 86 76.8056 86 81.5V81.5C86 86.1944 82.1944 90 77.5 90V90C72.8056 90 69 86.1944 69 81.5V81.5Z" fill="#00943F" fill-opacity="0.5"/>
<path d="M76.61 85L79.5 78.52L79.84 79.1H75.87L76.49 78.47V80.29H75.28V78H80.72V78.87L78 85H76.61Z" fill="white"/>
</svg>
